<?xml version="1.0" encoding="UTF-8"?><svg id="Layer_2" xmlns="http://www.w3.org/2000/svg" viewBox="0 0 2192.29 842.35"><defs><style>.cls-1{fill:#b5d257;}.cls-2{fill:#459a4e;}</style></defs><g><polygon class="cls-1" points="214.54 50 314.54 50 314.54 0 814.54 0 814.54 50 914.54 50 914.54 150 864.54 150 864.54 200 814.54 200 814.54 250 914.54 250 914.54 300 864.54 300 864.54 350 814.54 350 814.54 400 864.54 400 864.54 500 764.54 500 764.54 550 665.04 550 664.54 600 464.54 600 464.54 550 364.54 550 364.54 500 264.54 500 264.54 400 314.54 400 314.54 350 264.54 350 264.54 300 214.54 300 214.54 250 314.54 250 314.54 200 264.54 200 264.54 150 214.54 150 214.54 50"/><rect class="cls-2" x="164.54" y="50" width="50" height="100"/><rect class="cls-2" x="214.54" y="150" width="50" height="50"/><rect class="cls-2" x="264.54" y="200" width="50" height="50"/><rect class="cls-2" x="164.54" y="250" width="50" height="50"/><rect class="cls-2" x="214.54" y="300" width="50" height="50"/><rect class="cls-2" x="264.54" y="350" width="50" height="50"/><rect class="cls-2" x="214.54" y="400" width="50" height="100"/><rect class="cls-2" x="264.54" y="500" width="100" height="50"/><rect class="cls-2" x="364.54" y="550" width="100" height="50"/><rect class="cls-2" x="464.54" y="600" width="200" height="50"/><rect class="cls-2" x="665.04" y="550" width="99.5" height="50"/><rect class="cls-2" x="764.54" y="500" width="100" height="50"/><rect class="cls-2" x="814.54" y="350" width="50" height="50"/><rect class="cls-2" x="864.54" y="300" width="50" height="50"/><rect class="cls-2" x="814.54" y="200" width="50" height="50"/><rect class="cls-2" x="864.54" y="150" width="50" height="50"/><rect class="cls-2" x="364.54" y="250" width="50" height="50"/><rect class="cls-2" x="414.54" y="200" width="50" height="50"/><rect class="cls-2" x="464.54" y="250" width="49.86" height="49.86"/><rect class="cls-2" x="614.54" y="250" width="50" height="50"/><rect class="cls-2" x="664.54" y="200" width="50" height="50"/><rect class="cls-2" x="714.54" y="250" width="50" height="50"/><polygon class="cls-2" points="464.68 350 664.68 350 664.68 400 614.68 400 614.82 449.99 514.54 450 514.54 400 464.54 400 464.68 350"/><rect class="cls-2" x="117.04" y="57.5" width="35" height="35"/><rect class="cls-2" x="117.04" y="107.5" width="35" height="35"/><rect class="cls-2" x="167.04" y="157.5" width="35" height="35"/><rect class="cls-2" x="217.04" y="207.5" width="35" height="35"/><rect class="cls-2" x="117.04" y="257.5" width="35" height="35"/><rect class="cls-2" x="167.04" y="307.5" width="35" height="35"/><rect class="cls-2" x="217.04" y="357.5" width="35" height="35"/><rect class="cls-2" x="167.04" y="407.5" width="35" height="35"/><rect class="cls-2" x="167.04" y="457.5" width="35" height="35"/><rect class="cls-2" x="217.04" y="507.5" width="35" height="35"/><rect class="cls-2" x="317.04" y="557.5" width="35" height="35"/><rect class="cls-2" x="69.54" y="65" width="20" height="20"/><rect class="cls-2" x="69.54" y="115" width="20" height="20"/><rect class="cls-2" x="119.54" y="165" width="20" height="20"/><rect class="cls-2" x="169.54" y="215" width="20" height="20"/><rect class="cls-2" x="69.54" y="265" width="20" height="20"/><rect class="cls-2" x="119.54" y="315" width="20" height="20"/><rect class="cls-2" x="169.54" y="365" width="20" height="20"/><rect class="cls-2" x="119.54" y="415" width="20" height="20"/><rect class="cls-2" x="119.54" y="465" width="20" height="20"/><rect class="cls-2" x="169.54" y="515" width="20" height="20"/><rect class="cls-2" x="269.54" y="565" width="20" height="20"/><rect class="cls-2" x="34.54" y="70" width="10" height="10"/><rect class="cls-2" x="34.54" y="120" width="10" height="10"/><rect class="cls-2" x="84.54" y="170" width="10" height="10"/><rect class="cls-2" x="137.04" y="220" width="10" height="10"/><rect class="cls-2" x="34.54" y="270" width="10" height="10"/><rect class="cls-2" x="84.54" y="320" width="10" height="10"/><rect class="cls-2" x="134.54" y="370" width="10" height="10"/><rect class="cls-2" x="84.54" y="420" width="10" height="10"/><rect class="cls-2" x="84.54" y="470" width="10" height="10"/><rect class="cls-2" x="134.54" y="520" width="10" height="10"/><rect class="cls-2" x="234.54" y="570" width="10" height="10"/><rect class="cls-2" x="417.04" y="607.5" width="35" height="35"/><rect class="cls-2" x="369.54" y="615" width="20" height="20"/><rect class="cls-2" x="334.54" y="620" width="10" height="10"/></g><g><path class="cls-2" d="M1249.36,557.34h-124.8c-58.4,0-101.6-43.2-101.6-101.6V194.94c0-58.4,43.2-101.6,101.6-101.6h124.8c59.2,0,101.6,43.2,101.6,101.6v22.4h-57.6v-28.8c0-21.6-17.6-42.4-40-42.4h-132.8c-21.6,0-40,20.8-40,42.4V459.74c0,21.6,18.4,42.4,40,42.4h132.8c22.4,0,40-20.8,40-42.4v-108h-95.2v-53.6h152.8v157.6c0,58.4-42.4,101.6-101.6,101.6Z"/><path class="cls-2" d="M1657.35,557.34h-226.4V93.34h226.4c59.2,0,101.6,43.2,101.6,101.6V455.74c0,58.4-42.4,101.6-101.6,101.6Zm44-367.2c0-21.6-17.6-42.4-40-42.4h-174.4V502.94h174.4c22.4,0,40-20.8,40-42.4V190.14Z"/><path class="cls-2" d="M2065.35,557.34h-124.8c-58.4,0-101.6-43.2-101.6-101.6V194.94c0-58.4,43.2-101.6,101.6-101.6h124.8c59.2,0,101.6,43.2,101.6,101.6v22.4h-57.6v-28.8c0-21.6-17.6-42.4-40-42.4h-132.8c-21.6,0-40,20.8-40,42.4V459.74c0,21.6,18.4,42.4,40,42.4h132.8c22.4,0,40-20.8,40-42.4v-108h-95.2v-53.6h152.8v157.6c0,58.4-42.4,101.6-101.6,101.6Z"/></g><g><path class="cls-2" d="M177.55,825.63h-29.64c-13.87,0-24.13-10.26-24.13-24.13v-61.94c0-13.87,10.26-24.13,24.13-24.13h29.64c14.06,0,24.13,10.26,24.13,24.13v5.32h-13.68v-6.84c0-5.13-4.18-10.07-9.5-10.07h-31.54c-5.13,0-9.5,4.94-9.5,10.07v64.41c0,5.13,4.37,10.07,9.5,10.07h31.54c5.32,0,9.5-4.94,9.5-10.07v-25.65h-22.61v-12.73h36.29v37.43c0,13.87-10.07,24.13-24.13,24.13Z"/><path class="cls-2" d="M295.73,825.63h-49.59c-14.44,0-24.13-11.02-24.13-23.56,0-11.4,9.88-21.66,23.94-21.85h36.48v-7.98c0-8.55-3.8-11.4-13.3-11.4h-33.06v-13.11h36.48c12.92,0,23.18,10.45,23.18,23.18v54.72Zm-13.3-33.25h-37.05c-4.94,0-10.26,3.99-10.26,10.45,0,5.32,4.37,10.26,9.5,10.26h37.81v-20.71Z"/><path class="cls-2" d="M411.44,825.63v-55.86c0-5.32-3.04-9.5-8.36-9.5h-3.8c-5.51,0-5.13,.57-9.12,4.37l-9.88,9.12v51.87h-13.68v-55.86c0-5.32-3.04-9.5-8.17-9.5h-2.09c-3.23,0-3.42,.19-6.08,2.47l-16.72,15.2v47.69h-13.68v-77.9h13.68v14.82l9.5-8.74c2.85-2.47,6.46-6.08,12.35-6.08h2.85c9.69,0,15.58,5.13,19.38,13.3l7.22-7.22c2.66-2.66,6.46-5.89,12.35-6.08h4.94c14.06-.19,22.99,10.26,22.99,24.13v53.77h-13.68Z"/><path class="cls-2" d="M462.55,793.9v9.69c0,5.32,4.18,9.5,9.5,9.5h40.85v12.54h-39.52c-13.87,0-24.13-10.26-24.13-24.13v-29.64c0-13.87,10.26-24.13,24.13-24.13h25.46c14.06,0,24.13,10.26,24.13,24.13v22.04h-60.42Zm47.12-23.56c0-5.32-4.18-9.5-9.5-9.5h-28.12c-5.32,0-9.5,4.18-9.5,9.5v11.4h47.12v-11.4Z"/><path class="cls-2" d="M661.09,825.63h-53.77v-110.2h53.77c14.06,0,24.13,10.26,24.13,24.13v61.94c0,13.87-10.07,24.13-24.13,24.13Zm10.45-87.21c0-5.13-4.18-10.07-9.5-10.07h-41.42v84.36h41.42c5.32,0,9.5-4.94,9.5-10.07v-64.22Z"/><path class="cls-2" d="M722.65,793.9v9.69c0,5.32,4.18,9.5,9.5,9.5h40.85v12.54h-39.52c-13.87,0-24.13-10.26-24.13-24.13v-29.64c0-13.87,10.26-24.13,24.13-24.13h25.46c14.06,0,24.13,10.26,24.13,24.13v22.04h-60.42Zm47.12-23.56c0-5.32-4.18-9.5-9.5-9.5h-28.12c-5.32,0-9.5,4.18-9.5,9.5v11.4h47.12v-11.4Z"/><path class="cls-2" d="M873.51,799.22l-23.18,26.41h-13.68l-23.18-26.41c-4.56-5.51-6.27-9.5-6.27-17.1v-34.39h13.68v33.63c0,4.56,.38,6.08,3.23,9.5l18.05,22.23h2.28l18.43-22.23c2.85-3.42,3.23-4.94,3.23-9.5v-33.63h13.68v34.39c0,7.6-1.71,11.59-6.27,17.1Z"/><path class="cls-2" d="M917.21,793.9v9.69c0,5.32,4.18,9.5,9.5,9.5h40.85v12.54h-39.52c-13.87,0-24.13-10.26-24.13-24.13v-29.64c0-13.87,10.26-24.13,24.13-24.13h25.46c14.06,0,24.13,10.26,24.13,24.13v22.04h-60.42Zm47.12-23.56c0-5.32-4.18-9.5-9.5-9.5h-28.12c-5.32,0-9.5,4.18-9.5,9.5v11.4h47.12v-11.4Z"/><path class="cls-2" d="M1001.76,825.63v-12.16h16.15v-86.07h-16.15v-11.97h29.45v98.04h16.15v12.16h-45.6Z"/><path class="cls-2" d="M1116.71,825.63h-27.36c-13.87,0-24.51-10.64-24.51-24.51v-28.88c0-13.87,10.64-24.51,24.51-24.51h27.36c14.06,0,24.51,10.64,24.51,24.51v28.88c0,13.87-10.45,24.51-24.51,24.51Zm11.21-55.48c0-5.32-4.18-9.5-9.5-9.5h-30.78c-5.32,0-9.5,4.18-9.5,9.5v33.06c0,5.32,4.18,9.5,9.5,9.5h30.78c5.32,0,9.5-4.18,9.5-9.5v-33.06Z"/><path class="cls-2" d="M1212.28,812.71h-35.53v29.64h-13.3v-94.62h48.83c14.06,0,24.32,10.26,24.32,24.13v16.72c0,13.87-10.26,24.13-24.32,24.13Zm10.45-42.56c0-5.32-4.18-9.5-9.5-9.5h-36.48v39.14h36.48c5.32,0,9.5-4.18,9.5-9.5v-20.14Z"/><path class="cls-2" d="M1352.31,825.63v-55.86c0-5.32-3.04-9.5-8.36-9.5h-3.8c-5.51,0-5.13,.57-9.12,4.37l-9.88,9.12v51.87h-13.68v-55.86c0-5.32-3.04-9.5-8.17-9.5h-2.09c-3.23,0-3.42,.19-6.08,2.47l-16.72,15.2v47.69h-13.68v-77.9h13.68v14.82l9.5-8.74c2.85-2.47,6.46-6.08,12.35-6.08h2.85c9.69,0,15.58,5.13,19.38,13.3l7.22-7.22c2.66-2.66,6.46-5.89,12.35-6.08h4.94c14.06-.19,22.99,10.26,22.99,24.13v53.77h-13.68Z"/><path class="cls-2" d="M1403.41,793.9v9.69c0,5.32,4.18,9.5,9.5,9.5h40.85v12.54h-39.52c-13.87,0-24.13-10.26-24.13-24.13v-29.64c0-13.87,10.26-24.13,24.13-24.13h25.46c14.06,0,24.13,10.26,24.13,24.13v22.04h-60.42Zm47.12-23.56c0-5.32-4.18-9.5-9.5-9.5h-28.12c-5.32,0-9.5,4.18-9.5,9.5v11.4h47.12v-11.4Z"/><path class="cls-2" d="M1548.57,825.63v-55.67c0-5.32-4.37-9.5-9.5-9.5h-12.54c-5.32,0-6.27,.76-10.26,4.37l-15.01,13.3v47.5h-13.3v-77.9h13.3v14.82l9.5-8.74c2.85-2.47,7.79-6.08,13.68-6.08h14.06c14.06,0,23.37,9.31,23.37,23.37v54.53h-13.3Z"/><path class="cls-2" d="M1635.59,825.63h-13.49c-13.87,0-23.94-10.26-23.94-24.13v-41.23h-15.96v-12.54h15.96v-32.3h13.3v32.3h19v12.54h-19v42.94c0,5.32,4.37,9.5,9.5,9.5h15.58c5.32,0,9.5-4.18,9.5-9.5v-7.22h13.68v5.51c0,13.87-10.07,24.13-24.13,24.13Z"/><path class="cls-2" d="M1790.25,825.63h-29.64c-13.87,0-24.13-10.26-24.13-24.13v-61.94c0-13.87,10.26-24.13,24.13-24.13h29.64c14.06,0,24.13,10.26,24.13,24.13v5.32h-13.68v-6.84c0-5.13-4.18-10.07-9.5-10.07h-31.54c-5.13,0-9.5,4.94-9.5,10.07v64.41c0,5.13,4.37,10.07,9.5,10.07h31.54c5.32,0,9.5-4.94,9.5-10.07v-25.65h-22.61v-12.73h36.29v37.43c0,13.87-10.07,24.13-24.13,24.13Z"/><path class="cls-2" d="M1893.99,777.18v-6.84c0-5.32-4.37-9.5-9.5-9.5h-8.55c-5.51,0-6.65,.38-10.45,4.18l-13.68,13.49v47.12h-13.3v-77.9h13.3v14.82l9.5-10.07c2.66-2.66,6.46-4.75,12.54-4.75h9.69c13.87-.19,24.13,10.07,24.13,24.13v5.32h-13.68Z"/><path class="cls-2" d="M1975.12,825.63h-27.36c-13.87,0-24.51-10.64-24.51-24.51v-28.88c0-13.87,10.64-24.51,24.51-24.51h27.36c14.06,0,24.51,10.64,24.51,24.51v28.88c0,13.87-10.45,24.51-24.51,24.51Zm11.21-55.48c0-5.32-4.18-9.5-9.5-9.5h-30.78c-5.32,0-9.5,4.18-9.5,9.5v33.06c0,5.32,4.18,9.5,9.5,9.5h30.78c5.32,0,9.5-4.18,9.5-9.5v-33.06Z"/><path class="cls-2" d="M2081.71,825.63v-15.96l-9.12,9.88c-2.66,2.85-7.79,6.08-13.68,6.08h-12.92c-13.87,0-24.13-10.26-24.13-24.13v-53.77h13.3v55.86c0,5.32,4.18,9.5,9.5,9.5h12.16c5.51,0,6.65-.38,10.45-4.37l14.44-15.58v-45.41h13.3v77.9h-13.3Z"/><path class="cls-2" d="M2167.97,812.71h-35.53v29.64h-13.3v-94.62h48.83c14.06,0,24.32,10.26,24.32,24.13v16.72c0,13.87-10.26,24.13-24.32,24.13Zm10.45-42.56c0-5.32-4.18-9.5-9.5-9.5h-36.48v39.14h36.48c5.32,0,9.5-4.18,9.5-9.5v-20.14Z"/></g></svg>